<svg width="122" height="32" xmlns="http://www.w3.org/2000/svg" version="1.1">
 <!-- Generator: Sketch 52.6 (67491) - http://www.bohemiancoding.com/sketch -->

 <title>majestic</title>
 <desc>Created with Sketch.</desc>
 <g>
  <title>Layer 1</title>
  <g fill-rule="evenodd" fill="none" id="Page-1">
   <g id="majestic">
    <path fill="#474747" id="Majestic" d="m61.60976,14.23669l0,12.92899l-1.29236,0l0,-10.83037l-4.41249,10.83037l-1.16313,0l-4.43096,-10.7929l0,10.7929l-1.31082,0l0,-12.92899l1.53237,0l4.8002,11.29881l4.76328,-11.29881l1.51391,0zm7.07107,2.56706c1.02159,0 1.89238,0.26857 2.61242,0.80572c0.72003,0.53715 1.21543,1.24917 1.48621,2.13609l0,-2.81065l1.2739,0l0,10.23077l-1.2739,0l0,-2.81065c-0.27078,0.88692 -0.76618,1.59894 -1.48621,2.13609c-0.72004,0.53715 -1.59083,0.80572 -2.61242,0.80572c-0.91081,0 -1.72622,-0.21235 -2.44626,-0.63708c-0.72003,-0.42472 -1.28005,-1.03369 -1.68007,-1.82692c-0.40002,-0.79323 -0.60002,-1.72074 -0.60002,-2.78254c0,-1.0743 0.2,-2.00805 0.60002,-2.80129c0.40002,-0.79323 0.95696,-1.39907 1.67084,-1.81755c0.71388,-0.41848 1.53237,-0.62771 2.45549,-0.62771zm0.33232,1.16173c-1.13236,0 -2.04008,0.36538 -2.72319,1.09616c-0.68311,0.73077 -1.02466,1.72698 -1.02466,2.98866c0,1.26167 0.34155,2.25788 1.02466,2.98865c0.68311,0.73078 1.59083,1.09616 2.72319,1.09616c0.71388,0 1.35698,-0.16864 1.92931,-0.50592c0.57234,-0.33728 1.02158,-0.81508 1.34775,-1.43343c0.32617,-0.61835 0.48925,-1.33349 0.48925,-2.14546c0,-0.81197 -0.16308,-1.52712 -0.48925,-2.14547c-0.32617,-0.61834 -0.77541,-1.09615 -1.34775,-1.43343c-0.57233,-0.33728 -1.21543,-0.50592 -1.92931,-0.50592zm8.64037,-3.1854c-0.28309,0 -0.51387,-0.0812 -0.69234,-0.24359c-0.17847,-0.16239 -0.2677,-0.37475 -0.2677,-0.63708c0,-0.27482 0.08923,-0.49343 0.2677,-0.65582c0.17847,-0.16239 0.40925,-0.24359 0.69234,-0.24359c0.28309,0 0.51079,0.0812 0.6831,0.24359c0.17232,0.16239 0.25847,0.381 0.25847,0.65582c0,0.26233 -0.08615,0.47469 -0.25847,0.63708c-0.17231,0.16239 -0.40001,0.24359 -0.6831,0.24359zm-2.6955,16.05818l0.70157,0c0.46771,0 0.80926,-0.10617 1.02465,-0.31854c0.2154,-0.21236 0.32309,-0.58086 0.32309,-1.10552l0,-12.47929l1.29237,0l0,12.55424c0,1.67391 -0.83695,2.51085 -2.51088,2.51085l-0.8308,0l0,-1.16174zm10.54198,-4.6282c0.91081,0 1.67391,-0.2311 2.28933,-0.69329c0.61541,-0.4622 0.98465,-1.08679 1.10774,-1.87377l1.36621,0c-0.18463,1.08679 -0.69541,1.96745 -1.53237,2.64201c-0.83697,0.67456 -1.89546,1.01183 -3.17552,1.01183c-0.96005,0 -1.81238,-0.20923 -2.55703,-0.62771c-0.74465,-0.41847 -1.32621,-1.02432 -1.74469,-1.81755c-0.41848,-0.79323 -0.62772,-1.72699 -0.62772,-2.80128c0,-1.0743 0.20924,-2.00805 0.62772,-2.80129c0.41848,-0.79323 1.00004,-1.39907 1.74469,-1.81755c0.74465,-0.41848 1.59698,-0.62771 2.55703,-0.62771c0.98466,0 1.83699,0.20923 2.55703,0.62771c0.72003,0.41848 1.26774,0.97748 1.64314,1.67702c0.37541,0.69954 0.5631,1.46154 0.5631,2.286c0,0.34977 -0.02461,0.66831 -0.07384,0.95562l-8.34497,0c0.01231,0.86194 0.1877,1.58333 0.52617,2.1642c0.33848,0.58087 0.7785,1.00871 1.32006,1.28353c0.54156,0.27482 1.1262,0.41223 1.75392,0.41223zm0.05539,-8.33827c-0.65234,0 -1.24928,0.13741 -1.79085,0.41223c-0.54156,0.27482 -0.98158,0.69642 -1.32005,1.2648c-0.33848,0.56838 -0.52003,1.27728 -0.54464,2.12672l7.12645,0c0.04924,-0.83695 -0.08615,-1.54273 -0.40617,-2.11735c-0.32001,-0.57463 -0.7508,-0.99935 -1.29236,-1.27417c-0.54156,-0.27482 -1.13235,-0.41223 -1.77238,-0.41223zm10.13581,-1.06804c1.09544,0 1.97546,0.29355 2.64011,0.88067c0.66465,0.58711 1.07081,1.38034 1.21851,2.37968l-1.23697,0c-0.07385,-0.66207 -0.34155,-1.20858 -0.80311,-1.63954c-0.46156,-0.43097 -1.08004,-0.64645 -1.85547,-0.64645c-0.66464,0 -1.18466,0.16551 -1.56006,0.49654c-0.3754,0.33104 -0.5631,0.77137 -0.5631,1.32101c0,0.41223 0.12,0.74326 0.36001,0.9931c0.24001,0.24983 0.53849,0.44033 0.89543,0.5715c0.35694,0.13116 0.83695,0.26545 1.44006,0.40286c0.73849,0.17488 1.33236,0.35289 1.78161,0.53402c0.44925,0.18113 0.83388,0.46532 1.15389,0.85256c0.32002,0.38725 0.48002,0.9119 0.48002,1.57397c0,0.81197 -0.29847,1.47715 -0.89542,1.99556c-0.59695,0.51841 -1.38774,0.77761 -2.37241,0.77761c-1.15697,0 -2.1047,-0.29043 -2.84319,-0.8713c-0.7385,-0.58087 -1.17544,-1.37721 -1.31083,-2.38905l1.25544,0c0.07385,0.67456 0.36309,1.22419 0.86773,1.64891c0.50464,0.42473 1.18774,0.63709 2.04932,0.63709c0.64003,0 1.1385,-0.16864 1.49544,-0.50592c0.35694,-0.33728 0.53541,-0.77449 0.53541,-1.31164c0,-0.43721 -0.12308,-0.78698 -0.36924,-1.04931c-0.24617,-0.26233 -0.5508,-0.45907 -0.91389,-0.59024c-0.36309,-0.13116 -0.85849,-0.27169 -1.48622,-0.42159c-0.72618,-0.17489 -1.30774,-0.34977 -1.74468,-0.52466c-0.43695,-0.17488 -0.80927,-0.44658 -1.11697,-0.81509c-0.30771,-0.36851 -0.46156,-0.8713 -0.46156,-1.50838c0,-0.83695 0.30155,-1.5115 0.90465,-2.02367c0.60311,-0.51216 1.42159,-0.76824 2.45549,-0.76824zm10.89277,9.20019l0,1.16174l-1.20005,0c-0.97236,0 -1.69854,-0.23422 -2.17856,-0.70266c-0.48002,-0.46845 -0.72003,-1.25854 -0.72003,-2.37032l0,-6.01479l-1.53237,0l0,-1.143l1.53237,0l0,-2.5858l1.31083,0l0,2.5858l2.76934,0l0,1.143l-2.76934,0l0,6.03353c0,0.72453 0.12923,1.22107 0.3877,1.48964c0.25848,0.26858 0.71388,0.40286 1.36622,0.40286l1.03389,0zm1.82776,-12.10453c0,-0.27482 0.08924,-0.49343 0.26771,-0.65582c0.17847,-0.16239 0.40924,-0.24359 0.69233,-0.24359c0.2831,0 0.51079,0.0812 0.68311,0.24359c0.17232,0.16239 0.25847,0.381 0.25847,0.65582c0,0.26233 -0.08615,0.47469 -0.25847,0.63708c-0.17232,0.16239 -0.40001,0.24359 -0.68311,0.24359c-0.28309,0 -0.51386,-0.0812 -0.69233,-0.24359c-0.17847,-0.16239 -0.26771,-0.37475 -0.26771,-0.63708zm1.60623,3.0355l0,10.23077l-1.31083,0l0,-10.23077l1.31083,0zm7.25569,-0.13116c1.28006,0 2.34163,0.34352 3.18475,1.03057c0.84311,0.68705 1.35698,1.59894 1.5416,2.7357l-1.34775,0c-0.13539,-0.81197 -0.51079,-1.45217 -1.1262,-1.92061c-0.61541,-0.46845 -1.37236,-0.70266 -2.27087,-0.70266c-0.65233,0 -1.25235,0.1499 -1.80007,0.4497c-0.54772,0.2998 -0.98466,0.75887 -1.31083,1.37722c-0.32616,0.61834 -0.48925,1.37721 -0.48925,2.27663c0,0.89941 0.16309,1.65828 0.48925,2.27662c0.32617,0.61835 0.76311,1.07742 1.31083,1.37722c0.54772,0.29981 1.14774,0.44971 1.80007,0.44971c0.89851,0 1.65546,-0.23422 2.27087,-0.70267c0.61541,-0.46844 0.99081,-1.10864 1.1262,-1.92061l1.34775,0c-0.18462,1.13676 -0.69849,2.04865 -1.5416,2.7357c-0.84312,0.68705 -1.90469,1.03057 -3.18475,1.03057c-0.96005,0 -1.81238,-0.20923 -2.55703,-0.62771c-0.74465,-0.41847 -1.32621,-1.02432 -1.74469,-1.81755c-0.41848,-0.79323 -0.62772,-1.72699 -0.62772,-2.80128c0,-1.0743 0.20924,-2.00805 0.62772,-2.80129c0.41848,-0.79323 1.00004,-1.39907 1.74469,-1.81755c0.74465,-0.41848 1.59698,-0.62771 2.55703,-0.62771z"/>
    <g id="Group-5">
     <rect rx="3" height="28" width="8" y="15.05143" x="9.64671" transform="rotate(12 6.82335 14.5257) translate(-6.82335 -14.5257)" fill="#6493FF" id="Rectangle"/>
     <path transform="rotate(-5 17.8234 16.8873) translate(-17.8234 -16.8873)" fill="#3155A7" id="Rectangle-Copy" d="m38.51575,22.51507l1.9563,0.27042c1.62065,0.22402 2.65519,1.26003 2.31071,2.31397l-6.10591,18.43432c-0.34447,1.05395 -2.27855,1.72438 -3.8992,1.50035l-1.95629,-0.27042c-1.62065,-0.22402 -2.65519,-1.26002 -2.31071,-2.31397l6.44693,-18.43196c0.34448,-1.05395 1.93753,-1.72673 3.55817,-1.50271z"/>
     <path transform="rotate(1 27.9692 18.0202) translate(-27.9692 -18.0202)" fill="#6493FF" id="Rectangle-Copy-2" d="m57.37898,24.85649l1.95629,0.3895c1.62065,0.32267 2.65519,1.81487 2.31071,3.33292l-3.59006,16.4811c-0.34448,1.51805 -1.93753,2.48709 -3.55817,2.16442l-1.9563,-0.3895c-1.62065,-0.32267 -2.65519,-1.81486 -2.31071,-3.33291l3.59006,-16.48111c0.34448,-1.51804 1.93753,-2.48709 3.55818,-2.16442z"/>
     <path fill="#6493FF" id="Path-2" d="m8.83289,0.49781l14.20847,4.33045c1.02837,0.31343 1.62499,1.38377 1.35076,2.42328l-1.36012,5.15569l-18.5613,-5.62452l1.06271,-4.60279c0.3004,-1.30108 1.59866,-2.11229 2.89974,-1.81189c0.13676,0.03157 0.27051,0.075 0.39974,0.12978z"/>
     <circle r="3.5" cy="24.5" cx="36.5" fill="#6493FF" id="Oval"/>
    </g>
   </g>
  </g>
  <rect stroke="#000" id="svg_1" height="337" width="80" y="-88.88095" x="41.40476" fill="#fff"/>
  <text transform="matrix(1.02732 0 0 1 -1.15335 0)" stroke="#000" xml:space="preserve" text-anchor="start" font-family="Noto Sans JP" font-size="24" stroke-width="0" id="svg_3" y="25.57143" x="42.61905" fill="#000000">Admin</text>
 </g>
</svg>